<?xml version="1.0" encoding="utf-8"?>
<!-- Generator: Adobe Illustrator 28.1.0, SVG Export Plug-In . SVG Version: 6.00 Build 0)  -->
<svg version="1.1" id="Layer_1" xmlns="http://www.w3.org/2000/svg" xmlns:xlink="http://www.w3.org/1999/xlink" x="0px" y="0px"
	 viewBox="0 0 160.6 156" style="enable-background:new 0 0 160.6 156;" xml:space="preserve">
<style type="text/css">
	.st0{fill:url(#SVGID_1_);}
	.st1{fill:url(#SVGID_00000176036932593216659110000001692027165546668931_);}
	.st2{fill:url(#SVGID_00000103955198486367569730000009795496409033616561_);}
</style>
<g>
	
		<linearGradient id="SVGID_1_" gradientUnits="userSpaceOnUse" x1="140.3483" y1="131.2984" x2="19.3507" y2="133.1044" gradientTransform="matrix(1 0 0 -1 0 232.8241)">
		<stop  offset="0" style="stop-color:#FBB24C"/>
		<stop  offset="1" style="stop-color:#C0343E"/>
	</linearGradient>
	<path class="st0" d="M131.2,86.5v-0.3l0,0c-0.1-2.1-1.1-15.8-10.3-26.2c2.6,9.1,6.1,32.3-16,52.6c-1.3,1-2.8,2.1-4.5,3.1
		c-1.2,0.7-2.5,1.3-3.9,1.9c-1.5,0.5-3.8,1.2-6.2,1c-1.1-0.1-2.1-0.3-3.2-0.8l0,0c-1.9-0.9-3.2-2.5-4-4.6c-2-5.6,3.3-12.7,8.2-17.8
		l5.1-5.1l-5.3-2.1l-9.4-14.7L70.9,84.4c-1.1,1.1-1.9,2.2-2.8,3.3L67.9,88c-5.6,7.4-7.3,16.1-4.5,22.7l1.5,3.6l-3-2.5
		c-1.3-1-7.7-6.5-9.7-14c-0.2-0.7-0.3-1.2-0.4-1.7c0-0.1,0-0.3-0.1-0.3c-0.1-0.6-0.4-2.9-0.4-3.6v-0.6c0-0.4,0-0.7,0-1.1
		c0-3.2,0.5-6.4,1.6-9.6c0.2-0.4,0.3-0.9,0.5-1.3l0.2-0.4c1.3-3,2.9-5.5,4.9-7.8c0,0,0-0.1,0.1-0.1c0.1-0.1,0.1-0.1,0.2-0.2L55.1,67
		l-10.9,9.3l-9.8,28.9c0.3,1,0.6,1.9,0.9,2.8l0.3,1.3c0.4,1,0.9,2.1,1.4,3.1c0.5,0.9,0.2,1.6,0.7,2.5l0.2,0.4
		c0.5,0.9,1.1,1.8,1.7,2.8c1.3,1.7,0.8,4.2,2.2,5.8c0.7,0.8,1.4,1.6,2.2,2.4c2.1,2,4.2,4.4,6.3,5.9l0,0c0.4,0.3,0.8,0.6,1.3,0.8
		c0.9,0.6,1.8,1.2,2.8,1.8l1.4,0.8c0.7,0.4,1.5,0.8,2.3,1.2c2.3,1.1,4.6,2,7,2.7l0.5,0.2c0.2,0.1,0.5,0.2,0.7,0.2l0.6,0.2
		c1,0.3,2.1,0.5,3.2,0.8l4.4,0.7c0.8,0.1,1.5,0.2,2.3,0.2c1.4,0.1,2.9,0.2,4.8,0.1c0.5,0,0.9,0,1.2,0c0.9,0,1.9-0.1,2.7-0.2
		c0.8-0.1,1.5-0.2,2.2-0.3l0.7-0.1c0.5-0.1,1.1-0.1,1.5-0.2c0.3,0,0.5-0.1,0.6-0.1c5.7-1.1,10.9-3.2,15.6-6c0.3-0.2,3.3-2.2,4.2-2.8
		c4-3,7.6-6.5,10.6-10.4c0.6-0.8,1.1-1.5,1.7-2.3c0.5-0.7,1-1.5,1.5-2.2c0.3-0.5,0.5-0.9,0.8-1.3l0.4-0.7c1-1.8,1.8-3.6,2.7-5.7
		l0.2-0.7c0.3-0.8,0.5-1.4,0.6-1.9c0.3-0.9,0.6-1.8,0.9-2.7c0.7-2.6,1.2-5.3,1.5-8c0.1-1,0.2-1.9,0.2-2.9
		C131.5,91.1,131.4,88.9,131.2,86.5z"/>
	
		<linearGradient id="SVGID_00000042709943898680582890000010156339993955358906_" gradientUnits="userSpaceOnUse" x1="29.1149" y1="159.7659" x2="96.9149" y2="159.7659" gradientTransform="matrix(1 0 0 -1 0 232.8241)">
		<stop  offset="0" style="stop-color:#FBB24C"/>
		<stop  offset="1" style="stop-color:#C0343E"/>
	</linearGradient>
	<path style="fill:url(#SVGID_00000042709943898680582890000010156339993955358906_);" d="M96.9,44.8L86.5,76.2l-5.3-1.8l0.8-1.2
		c0.2-0.2,0.4-0.4,0.5-0.6c2.6-2.9,4-6.5,4-10.4c0-4.1-1.6-8-4.6-11l-1.7-1.7L59.7,70c0,0-0.2,0.2-0.5,0.5c-0.2,0.2-0.5,0.5-0.7,0.8
		c0,0,0,0-0.1,0.1c-6.3,7-32.9,38.8-8.1,60.7c-2.1-1.5-4.2-3.3-6.3-5.3c-0.8-0.8-1.6-1.6-2.2-2.4c-1.4-1.6-2.7-3.3-4-5.1
		c-0.6-1-1.2-1.9-1.7-2.8l-0.2-0.4c-0.5-0.8-1-1.8-1.4-2.7c-0.5-1-1-2.1-1.4-3.1l-0.7-1.6c-0.7-2-1.4-4.2-1.9-6.6
		c-0.3-1.1-0.5-2.2-0.6-3.2c-0.2-1.1-0.3-2.3-0.4-3.4l-0.3-1.6c-0.1-1.1-0.1-2.2-0.1-3.4c0-2.4,0.2-4.7,0.5-6.9
		c0.1-0.8,0.2-1.6,0.4-2.4c0-0.2,0-0.3,0.1-0.4l0.1-0.5c0.2-1.1,0.5-2.3,0.8-3.4c0.2-1,0.6-1.9,0.9-2.9l0.4-1
		c0.2-0.6,0.4-1.1,0.7-1.7c0.8-2.1,1.9-4.4,3.3-6.7c1.3-2.1,2.7-4.2,4.4-6.3c1.1-1.4,2.3-2.6,3.5-3.9L64,34.6
		c8.8-8.8,11.7-15.8,12.4-20.5l0,0L96.9,44.8z"/>
	
		<linearGradient id="SVGID_00000052817922848593050560000002292287764546257844_" gradientUnits="userSpaceOnUse" x1="95.4601" y1="205.4955" x2="75.7651" y2="120.5365" gradientTransform="matrix(1 0 0 -1 0 232.8241)">
		<stop  offset="0" style="stop-color:#FBB24C"/>
		<stop  offset="1" style="stop-color:#C0343E"/>
	</linearGradient>
	<path style="fill:url(#SVGID_00000052817922848593050560000002292287764546257844_);" d="M103.4,81.3c-1.5,2.7-3.6,5.4-6,7.9
		l-6.2,6.2c-4.9,5.1-10.2,12.2-8.2,17.8c0.7,2.1,2.1,3.7,4,4.6c-8.2-2.8-27.9-21.7-5-44.6c0.2-0.2,0.4-0.4,0.5-0.6
		c21.4-22.3-5-56.9-6.2-58.5l21.3,21.3c0.1,0.1,0.2,0.2,0.3,0.4C109.7,48,112,66.7,103.4,81.3z"/>
</g>
</svg>
