<?xml version="1.0" encoding="utf-8"?>
<!-- Generator: Adobe Illustrator 28.1.0, SVG Export Plug-In . SVG Version: 6.00 Build 0)  -->
<svg version="1.1" id="Capa_1" xmlns="http://www.w3.org/2000/svg" xmlns:xlink="http://www.w3.org/1999/xlink" x="0px" y="0px"
	 viewBox="0 0 500 500" style="enable-background:new 0 0 500 500;" xml:space="preserve">
<g>
	<path d="M440.7,281.8v-1.1l0,0c-0.4-7.9-4.1-59.2-38.6-98.1c9.7,34.1,22.8,120.9-59.9,197c-4.9,3.7-10.5,7.9-16.9,11.6
		c-4.5,2.6-9.4,4.9-14.6,7.1c-5.6,1.9-14.2,4.5-23.2,3.7c-4.1-0.4-7.9-1.1-12-3l0,0c-7.1-3.4-12-9.4-15-17.2
		c-7.5-21,12.4-47.6,30.7-66.7l19.1-19.1l-19.8-7.9l-35.2-55l-40.4,40.8c-4.1,4.1-7.1,8.2-10.5,12.4l-0.7,1.1
		c-21,27.7-27.3,60.3-16.9,85l5.6,13.5l-11.2-9.4c-4.9-3.7-28.8-24.3-36.3-52.4c-0.7-2.6-1.1-4.5-1.5-6.4c0-0.4,0-1.1-0.4-1.1
		c-0.4-2.2-1.5-10.9-1.5-13.5v-2.2c0-1.5,0-2.6,0-4.1c0-12,1.9-24,6-35.9c0.7-1.5,1.1-3.4,1.9-4.9l0.7-1.5
		c4.9-11.2,10.9-20.6,18.3-29.2c0,0,0-0.4,0.4-0.4c0.4-0.4,0.4-0.4,0.7-0.7l-13.9-15.4l-40.8,34.8L78.2,351.8
		c1.1,3.7,2.2,7.1,3.4,10.5l1.1,4.9c1.5,3.7,3.4,7.9,5.2,11.6c1.9,3.4,0.7,6,2.6,9.4l0.7,1.5c1.9,3.4,4.1,6.7,6.4,10.5
		c4.9,6.4,3,15.7,8.2,21.7c2.6,3,5.2,6,8.2,9c7.9,7.5,15.7,16.5,23.6,22.1l0,0c1.5,1.1,3,2.2,4.9,3c3.4,2.2,6.7,4.5,10.5,6.7l5.2,3
		c2.6,1.5,5.6,3,8.6,4.5c8.6,4.1,17.2,7.5,26.2,10.1l1.9,0.7c0.7,0.4,1.9,0.7,2.6,0.7l2.2,0.7c3.7,1.1,7.9,1.9,12,3l16.5,2.6
		c3,0.4,5.6,0.7,8.6,0.7c5.2,0.4,10.9,0.7,18,0.4c1.9,0,3.4,0,4.5,0c3.4,0,7.1-0.4,10.1-0.7c3-0.4,5.6-0.7,8.2-1.1l2.6-0.4
		c1.9-0.4,4.1-0.4,5.6-0.7c1.1,0,1.9-0.4,2.2-0.4c21.3-4.1,40.8-12,58.4-22.5c1.1-0.7,12.4-8.2,15.7-10.5
		c15-11.2,28.5-24.3,39.7-38.9c2.2-3,4.1-5.6,6.4-8.6c1.9-2.6,3.7-5.6,5.6-8.2c1.1-1.9,1.9-3.4,3-4.9l1.5-2.6
		c3.7-6.7,6.7-13.5,10.1-21.3l0.7-2.6c1.1-3,1.9-5.2,2.2-7.1c1.1-3.4,2.2-6.7,3.4-10.1c2.6-9.7,4.5-19.8,5.6-30
		c0.4-3.7,0.7-7.1,0.7-10.9C441.8,299,441.5,290.7,440.7,281.8z"/>
	<path d="M312.3,125.6l-38.9,117.6l-19.8-6.7l3-4.5c0.7-0.7,1.5-1.5,1.9-2.2c9.7-10.9,15-24.3,15-38.9c0-15.4-6-30-17.2-41.2
		l-6.4-6.4L173,220c0,0-0.7,0.7-1.9,1.9c-0.7,0.7-1.9,1.9-2.6,3c0,0,0,0-0.4,0.4c-23.6,26.2-123.2,145.3-30.3,227.3
		c-7.9-5.6-15.7-12.4-23.6-19.8c-3-3-6-6-8.2-9c-5.2-6-10.1-12.4-15-19.1c-2.2-3.7-4.5-7.1-6.4-10.5l-0.7-1.5
		c-1.9-3-3.7-6.7-5.2-10.1c-1.9-3.7-3.7-7.9-5.2-11.6l-2.6-6c-2.6-7.5-5.2-15.7-7.1-24.7c-1.1-4.1-1.9-8.2-2.2-12
		c-0.7-4.1-1.1-8.6-1.5-12.7l-1.1-6c-0.4-4.1-0.4-8.2-0.4-12.7c0-9,0.7-17.6,1.9-25.8c0.4-3,0.7-6,1.5-9c0-0.7,0-1.1,0.4-1.5
		l0.4-1.9c0.7-4.1,1.9-8.6,3-12.7c0.7-3.7,2.2-7.1,3.4-10.9l1.5-3.7c0.7-2.2,1.5-4.1,2.6-6.4c3-7.9,7.1-16.5,12.4-25.1
		c4.9-7.9,10.1-15.7,16.5-23.6c4.1-5.2,8.6-9.7,13.1-14.6l74.1-74.1c33-33,43.8-59.2,46.4-76.8l0,0L312.3,125.6z"/>
	<path d="M336.6,262.3c-5.6,10.1-13.5,20.2-22.5,29.6l-23.2,23.2c-18.3,19.1-38.2,45.7-30.7,66.7c2.6,7.9,7.9,13.9,15,17.2
		c-30.7-10.5-104.5-81.3-18.7-167c0.7-0.7,1.5-1.5,1.9-2.2c80.1-83.5-18.7-213.1-23.2-219.1L315,90.5c0.4,0.4,0.7,0.7,1.1,1.5
		C360.2,137.6,368.8,207.6,336.6,262.3z"/>
</g>
</svg>
