<?xml version="1.0" encoding="utf-8"?>
<!-- Generator: Adobe Illustrator 28.1.0, SVG Export Plug-In . SVG Version: 6.00 Build 0)  -->
<svg version="1.1" id="Capa_1" xmlns="http://www.w3.org/2000/svg" xmlns:xlink="http://www.w3.org/1999/xlink" x="0px" y="0px"
	 viewBox="0 0 500 500" style="enable-background:new 0 0 500 500;" xml:space="preserve">
<style type="text/css">
	.st0{fill:#FFFFFF;stroke:#000000;stroke-miterlimit:10;}
	.st1{fill:#212121;}
</style>
<circle class="st0" cx="250" cy="250" r="250"/>
<g>
	<path class="st1" d="M394.1,268.4v-0.9l0,0c-0.3-5.9-3.1-44.7-29.1-74.1c7.3,25.7,17.2,91.4-45.3,148.9c-3.7,2.8-7.9,5.9-12.8,8.8
		c-3.4,1.9-7.1,3.7-11,5.4c-4.2,1.5-10.7,3.4-17.5,2.8c-3.1-0.3-5.9-0.9-9.1-2.2l0,0c-5.4-2.5-9.1-7.1-11.3-13
		c-5.7-15.9,9.4-35.9,23.2-50.4l14.4-14.4l-15-5.9L254,231.6l-30.5,30.8c-3.1,3.1-5.4,6.2-7.9,9.4l-0.5,0.9
		c-15.9,20.9-20.7,45.6-12.8,64.2l4.2,10.2L198,340c-3.7-2.8-21.7-18.3-27.5-39.6c-0.5-1.9-0.9-3.4-1.2-4.9c0-0.3,0-0.9-0.3-0.9
		c-0.3-1.7-1.2-8.3-1.2-10.2v-1.7c0-1.2,0-1.9,0-3.1c0-9.1,1.5-18.1,4.6-27.1c0.5-1.2,0.9-2.5,1.5-3.7l0.5-1.2
		c3.7-8.5,8.3-15.6,13.8-22c0,0,0-0.3,0.3-0.3c0.3-0.3,0.3-0.3,0.5-0.5l-10.5-11.6l-30.8,26.3L120,321.2c0.9,2.8,1.7,5.4,2.5,7.9
		l0.9,3.7c1.2,2.8,2.5,5.9,3.9,8.8c1.5,2.5,0.5,4.6,1.9,7.1l0.5,1.2c1.5,2.5,3.1,5.1,4.9,7.9c3.7,4.9,2.2,11.9,6.2,16.4
		c1.9,2.2,3.9,4.6,6.2,6.8c5.9,5.7,11.9,12.5,17.8,16.7l0,0c1.2,0.9,2.2,1.7,3.7,2.2c2.5,1.7,5.1,3.4,7.9,5.1l3.9,2.2
		c1.9,1.2,4.2,2.2,6.5,3.4c6.5,3.1,13,5.7,19.8,7.6l1.5,0.5c0.5,0.3,1.5,0.5,1.9,0.5l1.7,0.5c2.8,0.9,5.9,1.5,9.1,2.2l12.5,1.9
		c2.2,0.3,4.2,0.5,6.5,0.5c3.9,0.3,8.3,0.5,13.6,0.3c1.5,0,2.5,0,3.4,0c2.5,0,5.4-0.3,7.6-0.5c2.2-0.3,4.2-0.5,6.2-0.9l1.9-0.3
		c1.5-0.3,3.1-0.3,4.2-0.5c0.9,0,1.5-0.3,1.7-0.3c16.1-3.1,30.8-9.1,44.1-17c0.9-0.5,9.4-6.2,11.9-7.9c11.3-8.5,21.5-18.3,30-29.4
		c1.7-2.2,3.1-4.2,4.9-6.5c1.5-1.9,2.8-4.2,4.2-6.2c0.9-1.5,1.5-2.5,2.2-3.7l1.2-1.9c2.8-5.1,5.1-10.2,7.6-16.1l0.5-1.9
		c0.9-2.2,1.5-3.9,1.7-5.4c0.9-2.5,1.7-5.1,2.5-7.6c1.9-7.3,3.4-15,4.2-22.7c0.3-2.8,0.5-5.4,0.5-8.3
		C394.9,281.3,394.7,275.1,394.1,268.4z"/>
	<path class="st1" d="M297.1,150.3l-29.4,88.8l-15-5.1l2.2-3.4c0.5-0.5,1.2-1.2,1.5-1.7c7.3-8.3,11.3-18.3,11.3-29.4
		c0-11.6-4.6-22.7-13-31.2l-4.9-4.9l-58.1,58c0,0-0.5,0.5-1.5,1.5c-0.5,0.5-1.5,1.5-1.9,2.2c0,0,0,0-0.3,0.3
		c-17.8,19.8-93.1,109.8-22.9,171.8c-5.9-4.2-11.9-9.4-17.8-15c-2.2-2.2-4.6-4.6-6.2-6.8c-3.9-4.6-7.6-9.4-11.3-14.4
		c-1.7-2.8-3.4-5.4-4.9-7.9l-0.5-1.2c-1.5-2.2-2.8-5.1-3.9-7.6c-1.5-2.8-2.8-5.9-3.9-8.8l-1.9-4.6c-1.9-5.7-3.9-11.9-5.4-18.7
		c-0.9-3.1-1.5-6.2-1.7-9.1c-0.5-3.1-0.9-6.5-1.2-9.5l-0.9-4.6c-0.3-3.1-0.3-6.2-0.3-9.5c0-6.8,0.5-13.3,1.5-19.5
		c0.3-2.2,0.5-4.6,1.2-6.8c0-0.5,0-0.9,0.3-1.2l0.3-1.5c0.5-3.1,1.5-6.5,2.2-9.5c0.5-2.8,1.7-5.4,2.5-8.3l1.2-2.8
		c0.5-1.7,1.2-3.1,1.9-4.9c2.2-5.9,5.4-12.5,9.4-19c3.7-5.9,7.6-11.9,12.5-17.8c3.1-3.9,6.5-7.3,9.9-11l56-56
		c24.9-24.9,33.1-44.7,35.1-58.1l0,0L297.1,150.3z"/>
	<path class="st1" d="M315.4,253.6c-4.2,7.6-10.2,15.3-17,22.4l-17.5,17.5C267,307.9,252,328,257.6,343.9c1.9,5.9,5.9,10.5,11.3,13
		c-23.2-7.9-78.9-61.5-14.1-126.2c0.5-0.5,1.2-1.2,1.5-1.7c60.5-63.1-14.1-161-17.5-165.5l60.3,60.3c0.3,0.3,0.5,0.5,0.9,1.2
		C333.2,159.3,339.8,212.2,315.4,253.6z"/>
</g>
</svg>
