<svg width="38" height="48" viewBox="0 0 38 48" fill="none" xmlns="http://www.w3.org/2000/svg">
<path fill-rule="evenodd" clip-rule="evenodd" d="M37.129 7.88671V11.0958C36.7191 11.3028 36.3104 11.5109 35.8994 11.7167C35.2869 12.0228 34.8197 12.4664 34.5366 13.0983C34.3757 13.4583 34.2677 13.8293 34.2666 14.2246C34.2666 14.4998 34.2744 14.7739 34.292 15.048C34.346 15.866 34.3008 16.6818 34.2138 17.4942C34.1333 18.2428 33.9923 18.9815 33.8017 19.7114C33.5406 20.7088 33.1858 21.6732 32.7341 22.6002C32.1678 23.7649 31.4693 24.8449 30.6364 25.8368C30.2001 26.3575 29.734 26.8496 29.2305 27.3032C29.1226 27.4012 29.0884 27.4914 29.1071 27.6324C29.1666 28.0683 29.214 28.5065 29.2625 28.9446C29.3088 29.3641 29.3495 29.7835 29.3947 30.2029C29.4432 30.6598 29.4939 31.1167 29.5423 31.5736C29.5875 31.993 29.6305 32.4124 29.6745 32.8319C29.7153 33.2161 29.7583 33.6003 29.7979 33.9845C29.8398 34.3885 29.8784 34.7926 29.9213 35.1955C29.972 35.6678 30.026 36.1401 30.0767 36.6124C30.1274 37.0857 30.1736 37.5591 30.2232 38.0314C30.2739 38.507 30.3279 38.9837 30.3775 39.4593C30.427 39.936 30.4711 40.4137 30.5218 40.8904C30.5791 41.4288 30.6441 41.9649 30.7014 42.5032C30.7851 43.2882 30.8644 44.0731 30.9471 44.8581C31.0209 45.5582 31.0947 46.2584 31.1696 46.9586C31.2071 47.3053 31.2478 47.651 31.2875 47.9967H31.2181C31.1939 47.9813 31.1707 47.9615 31.1432 47.9527C30.9372 47.8866 30.7267 47.8327 30.524 47.7567C30.0359 47.5751 29.5511 47.3835 29.0653 47.1953C27.9382 46.7593 26.8122 46.3222 25.6851 45.8863C24.6153 45.4723 23.5455 45.0606 22.4768 44.6467C21.4434 44.2482 20.4099 43.8496 19.3776 43.4489C19.2795 43.4104 19.1969 43.4115 19.0999 43.4533C18.9016 43.5381 18.6978 43.6118 18.4962 43.6889C17.5167 44.0665 16.5373 44.4441 15.5578 44.8217C14.3591 45.2852 13.1604 45.7509 11.9606 46.2144C10.6539 46.7197 9.34725 47.2239 8.04058 47.7281C7.91498 47.7765 7.78827 47.8228 7.66157 47.869C7.54258 47.9119 7.42359 47.9538 7.30461 47.9967H7.23519C7.27486 47.651 7.31562 47.3042 7.35308 46.9586C7.4291 46.2551 7.50292 45.5505 7.57784 44.8459C7.67369 43.9454 7.77065 43.046 7.8665 42.1454C7.95794 41.2878 8.05049 40.4292 8.14194 39.5716C8.23008 38.7404 8.31601 37.9092 8.40415 37.078C8.50992 36.0817 8.61789 35.0854 8.72366 34.0891C8.8129 33.2502 8.89774 32.4113 8.98698 31.5725C9.06851 30.8073 9.15224 30.0411 9.23487 29.276C9.26242 29.0217 9.28776 28.7674 9.31089 28.5131C9.3164 28.4569 9.33183 28.4338 9.39352 28.4129C9.51251 28.3733 9.62379 28.3094 9.73727 28.2511C10.5559 27.8338 11.3734 27.4144 12.1931 26.9993C12.2305 26.9806 12.2988 26.9905 12.3385 27.0126C13.0822 27.4166 13.8567 27.7502 14.6643 28.0067C15.4653 28.261 16.2828 28.4327 17.1157 28.5296C17.9067 28.621 18.7011 28.6364 19.4944 28.5758C20.9762 28.4624 22.4008 28.1123 23.7637 27.5113C24.8621 27.0258 25.8768 26.4038 26.799 25.6364C28.1475 24.5135 29.2261 23.1704 30.0293 21.6083C30.6088 20.482 31.0132 19.2964 31.2401 18.0524C31.4109 17.1144 31.4924 16.1665 31.434 15.211C31.412 14.8488 31.3768 14.4866 31.3459 14.1244C31.3448 14.1057 31.3371 14.0881 31.3294 14.0605C20.8881 19.3767 10.4534 24.6842 0.0022035 29.9993V29.8782C0.0022035 28.8863 0.00330525 27.8944 0 26.9014C0 26.8144 0.0286455 26.7737 0.104666 26.7351C5.80182 23.8409 11.4979 20.9433 17.1939 18.0469L23.6711 14.7552C24.7508 14.2058 25.8294 13.6576 26.9092 13.1072C28.8923 12.0965 30.8699 11.0782 32.852 10.0665C34.2391 9.35861 35.6295 8.65624 37.0177 7.95057C37.0552 7.93185 37.0915 7.90873 37.1279 7.88671H37.129ZM26.4145 29.3971C21.7177 31.9181 16.9339 32.1383 12.03 30.0708C11.5497 34.6032 11.0682 39.1345 10.5867 43.6779C10.6363 43.6592 10.6682 43.6482 10.7013 43.6361C11.7557 43.2298 12.8101 42.8236 13.8644 42.4174C15.6151 41.7414 17.3658 41.0666 19.1154 40.3873C19.2222 40.3455 19.3093 40.3521 19.4117 40.3928C20.7195 40.9025 22.0295 41.4089 23.3384 41.9154C24.6451 42.4207 25.9517 42.9249 27.2595 43.4291C27.4821 43.515 27.7046 43.5997 27.9382 43.69C27.4292 38.9132 26.9224 34.1518 26.4167 29.3971H26.4145ZM19.5076 0.0318324C22.5286 0.227792 25.2753 1.19768 27.7443 2.9525C27.763 2.96572 27.7795 2.97893 27.8082 3.00094C27.7674 3.02406 27.7355 3.04388 27.7024 3.06039C26.7924 3.52387 25.8812 3.98624 24.9723 4.45082C24.8996 4.48825 24.8445 4.49266 24.7696 4.45082C23.5598 3.78698 22.2741 3.33011 20.9178 3.08131C19.8458 2.88425 18.7661 2.8237 17.6776 2.90076C16.145 3.00975 14.6786 3.37745 13.2794 4.00826C11.8119 4.6699 10.5107 5.57263 9.38471 6.72307C7.91608 8.22139 6.87382 9.97401 6.25464 11.9787C6.01335 12.7604 5.85911 13.5607 5.76876 14.3732C5.67071 15.2473 5.67512 16.1203 5.75114 16.9955C5.76326 17.1331 5.78419 17.2707 5.80292 17.4183C5.84699 17.3973 5.88555 17.3808 5.92191 17.3621C8.76332 15.9177 11.6058 14.4756 14.4462 13.0279C17.7415 11.3479 21.0324 9.66136 24.3278 7.98139C28.5761 5.81593 32.8278 3.65488 37.0772 1.49162C37.0948 1.48281 37.1125 1.47621 37.1301 1.4685V4.67761C34.5542 5.98767 31.9783 7.29663 29.4035 8.6078C26.5941 10.0368 23.7846 11.4646 20.9773 12.8958C14.0253 16.4374 7.07654 19.9811 0.127803 23.5238C0.0914453 23.5425 0.052884 23.559 0.00330525 23.5822V23.4556C0.00330525 22.467 0.004407 21.4795 0.00110175 20.4909C0.00110175 20.3984 0.030849 20.3565 0.111277 20.3158C0.544265 20.1 0.983863 19.8953 1.40143 19.652C2.37648 19.085 2.87006 18.2263 2.86565 17.0968C2.86345 16.6091 2.81718 16.1214 2.82268 15.6337C2.85464 12.6118 3.66442 9.81548 5.29611 7.26801C7.00823 4.59504 9.32962 2.62334 12.2294 1.33419C13.4689 0.782642 14.7635 0.408338 16.1021 0.195866C17.2314 0.0175207 18.3673 -0.0430284 19.5087 0.0307315L19.5076 0.0318324Z" fill="#F0F0EE"/>
</svg>
